<svg height="512pt" viewBox="-80 0 512 512" width="512pt" xmlns="http://www.w3.org/2000/svg"><path d="m31.5625 159.8125c0-97.394531 69.023438-152.296875 144.28125-152.296875s144.28125 54.902344 144.28125 152.296875c0 97.390625-48.09375 200.390625-144.28125 200.390625s-144.28125-103-144.28125-200.390625zm0 0" fill="#7cbc59"/><path d="m239.96875 336.15625c-96.1875 0-144.28125-103-144.28125-200.390625 0-58.730469 25.105469-102 61.535156-127.109375-67.644531 8.300781-125.660156 61.867188-125.660156 151.15625 0 97.390625 48.09375 200.390625 144.28125 200.390625 28.523438 0 52.816406-9.058594 72.878906-24.339844-2.871094.191407-5.789062.292969-8.753906.292969zm0 0" fill="#6daf47"/><path d="m236.855469 504.484375h-122.023438c-15.671875 0-29.050781-11.332031-31.625-26.789063l-27.597656-165.585937h240.46875l-27.597656 165.585937c-2.574219 15.457032-15.953125 26.789063-31.625 26.789063zm0 0" fill="#f6de7c"/><path d="m284.054688 384.25 12.023437-72.140625h-240.46875l12.023437 72.140625zm0 0" fill="#dddfdc"/><path d="m78.320312 448.375 4.886719 29.320312c2.578125 15.457032 15.953125 26.789063 31.625 26.789063h122.023438c15.671875 0 29.050781-11.332031 31.625-26.789063l4.886719-29.320312zm0 0" fill="#dddfdc"/><path d="m344.171875 160.3125h-16.535156c0-.167969.003906-.332031.003906-.5 0-16.523438-1.90625-32.207031-5.640625-46.867188l18.023438-10.816406c3.558593-2.132812 4.710937-6.75 2.578124-10.308594-2.136718-3.558593-6.753906-4.714843-10.3125-2.578124l-14.8125 8.890624c-6.289062-17.554687-15.445312-33.386718-27.324218-47.136718l11.792968-14.742188c2.59375-3.238281 2.066407-7.96875-1.171874-10.5625-3.242188-2.589844-7.972657-2.066406-10.5625 1.175782l-10.554688 13.191406c-27.53125-25.847656-64.289062-40.058594-103.8125-40.058594s-76.28125 14.210938-103.8125 40.058594l-10.554688-13.191406c-2.59375-3.242188-7.324218-3.769532-10.5625-1.175782-3.238281 2.59375-3.765624 7.324219-1.171874 10.5625l11.792968 14.742188c-11.882812 13.75-21.039062 29.582031-27.324218 47.136718l-14.8125-8.890624c-3.5625-2.136719-8.175782-.980469-10.3125 2.578124-2.132813 3.558594-.980469 8.175782 2.578124 10.308594l18.023438 10.816406c-3.734375 14.660157-5.640625 30.34375-5.640625 46.867188 0 .167969.003906.332031.003906.5h-16.535156c-4.152344 0-7.515625 3.363281-7.515625 7.515625 0 4.148437 3.363281 7.515625 7.515625 7.515625h16.925781c.734375 14.632812 2.496094 29 5.222656 42.863281l-16.925781 6.769531c-3.851562 1.539063-5.726562 5.914063-4.1875 9.769532 1.523438 3.796875 5.964844 5.707031 9.769531 4.183594l14.6875-5.875c3.804688 14.996093 8.769532 29.261718 14.800782 42.492187l-11.59375 5.796875c-3.710938 1.855469-5.214844 6.367188-3.359375 10.082031 1.832031 3.660157 6.414062 5.191407 10.082031 3.359375l11.566406-5.785156c2.949219 5.425781 6.09375 10.632812 9.425782 15.597656h-8.320313c-4.570313 0-8.164063 4.238282-7.414063 8.75l27.597657 165.582032c3.195312 19.164062 19.613281 33.070312 39.039062 33.070312h122.023438c19.425781 0 35.84375-13.90625 39.039062-33.070312l27.59375-165.585938c.753907-4.511719-2.839843-8.75-7.410156-8.75h-8.324219c3.332032-4.964844 6.476563-10.167969 9.421875-15.59375l11.570313 5.785156c3.667968 1.832032 8.253906.300782 10.082031-3.363281 1.859375-3.710937.351563-8.226563-3.359375-10.082031l-11.59375-5.796875c6.035156-13.226563 11.003906-27.492188 14.804688-42.488281l14.683593 5.875c3.808594 1.523437 8.25-.386719 9.769531-4.1875 1.542969-3.851563-.332031-8.226563-4.1875-9.765626l-16.925781-6.769531c2.730469-13.863281 4.492188-28.226562 5.226563-42.867187h16.925781c4.152344 0 7.515625-3.363282 7.515625-7.511719 0-4.152344-3.363281-7.515625-7.515625-7.515625zm-56.964844 159.3125-9.519531 57.109375h-203.6875l-9.519531-57.109375zm-20.207031 121.234375h-182.316406l-8.179688-49.09375h198.679688zm-140.140625-136.265625c-14.84375-35.789062-23.65625-89.554688-23.65625-144.78125 0-88.449219 31.644531-137.648438 65.125-144.054688v288.835938zm-45.390625-1.242188c-4.894531-6.503906-9.402344-13.5625-13.515625-21.074218l7.046875-3.523438c3.710938-1.855468 5.21875-6.371094 3.359375-10.082031-1.855469-3.714844-6.367187-5.21875-10.078125-3.363281l-7.035156 3.519531c-5.824219-12.839844-10.574219-26.75-14.167969-41.398437l11.320313-4.53125c3.855468-1.539063 5.730468-5.914063 4.1875-9.765626-1.539063-3.855468-5.914063-5.730468-9.769532-4.1875l-8.945312 3.578126c-2.238282-12.050782-3.722656-24.496094-4.386719-37.179688h8.109375c4.148438 0 7.515625-3.363281 7.515625-7.515625 0-4.148437-3.367187-7.515625-7.515625-7.515625h-8.511719c0-.164062-.003906-.332031-.003906-.5 0-13.878906 1.476563-26.785156 4.191406-38.71875l8.472657 5.085938c1.210937.726562 2.542968 1.070312 3.859374 1.070312 2.554688 0 5.042969-1.300781 6.449219-3.648438 2.136719-3.558593.980469-8.175781-2.574219-10.308593l-11.976562-7.1875c5.605469-16.503907 13.773438-30.824219 23.792969-42.910157l10.511719 13.140626c1.484374 1.855468 3.667968 2.820312 5.871093 2.820312 1.648438 0 3.304688-.539062 4.691407-1.648438 3.238281-2.589843 3.765624-7.320312 1.171874-10.5625l-11.886718-14.859374c13.449218-12.8125 29.25-22.351563 46.140625-28.539063-5.132813 5.667969-9.90625 12.304687-14.230469 19.863281-16.609375 29.042969-25.390625 69.296875-25.390625 116.402344 0 55.097656 8.152344 107.128906 22.515625 144.78125h-28.460938c-.210937-.429688-.460937-.84375-.757812-1.242188zm155.386719 193.617188h-122.023438c-12.050781 0-22.230469-8.625-24.214843-20.511719l-3.425782-20.566406h177.304688l-3.425782 20.566406c-1.980468 11.886719-12.167968 20.511719-24.214843 20.511719zm70.964843-284.445312-8.949218-3.578126c-3.855469-1.546874-8.226563.332032-9.769532 4.183594-1.542968 3.855469.332032 8.226563 4.1875 9.769532l11.324219 4.53125c-3.589843 14.648437-8.34375 28.558593-14.171875 41.398437l-7.03125-3.519531c-3.710937-1.855469-8.226562-.351563-10.082031 3.359375-1.859375 3.714843-.351563 8.226562 3.359375 10.082031l7.050781 3.527344c-4.191406 7.65625-8.796875 14.839844-13.800781 21.449218-.210938.277344-.394531.570313-.558594.867188h-28.378906c14.363281-37.652344 22.515625-89.683594 22.515625-144.78125 0-10.09375-.410156-20.011719-1.21875-29.476562-.355469-4.136719-3.992187-7.199219-8.128906-6.847657-4.132813.355469-7.199219 3.992188-6.847657 8.125.773438 9.042969 1.164063 18.53125 1.164063 28.199219 0 55.226562-8.8125 108.992188-23.65625 144.78125h-41.46875v-288.851562c10.878906 2.066406 21.316406 8.601562 30.550781 19.214843 12.558594 14.433594 22.277344 35.742188 28.113282 61.625.914062 4.046875 4.933593 6.589844 8.984374 5.675781 4.050782-.910156 6.589844-4.933593 5.679688-8.980468-6.699219-29.707032-18.203125-53.578125-32.835938-69.746094 16.90625 6.191406 32.722657 15.734375 46.183594 28.558594l-11.886718 14.855468c-2.59375 3.242188-2.066407 7.972657 1.171874 10.5625 1.386719 1.109376 3.042969 1.648438 4.691407 1.648438 2.203125 0 4.386719-.964844 5.871093-2.820312l10.511719-13.136719c10.019531 12.082031 18.1875 26.402343 23.792969 42.90625l-11.976562 7.1875c-3.558594 2.132812-4.710938 6.75-2.578126 10.308593 1.410157 2.347657 3.898438 3.648438 6.453126 3.648438 1.316406 0 2.648437-.34375 3.859374-1.070312l8.472657-5.082032c2.714843 11.933594 4.191406 24.835938 4.191406 38.714844 0 .167969-.003906.335938-.003906.503906h-8.511719c-4.148438 0-7.515625 3.363282-7.515625 7.511719 0 4.152344 3.367187 7.515625 7.515625 7.515625h8.109375c-.664063 12.6875-2.148437 25.132812-4.382813 37.179688zm0 0"/></svg>